<?xml version="1.0" encoding="UTF-8" standalone="no"?>
<svg width="77px" height="55px" viewBox="0 0 77 55" version="1.1" xmlns="http://www.w3.org/2000/svg" xmlns:xlink="http://www.w3.org/1999/xlink">
    <!-- Generator: Sketch 40.3 (33839) - http://www.bohemiancoding.com/sketch -->
    <title>Group</title>
    <desc>Created with Sketch.</desc>
    <defs></defs>
    <g id="Page-1" stroke="none" stroke-width="1" fill="none" fill-rule="evenodd">
        <g id="Group" fill="#000000">
            <path d="M76,24.116 C76,19.508 76.887,14.606 74.489,10.46 C72.423,6.886 68.438,6 64.642,6 L47.498,6 L28.142,6 C27.919,3.727 26.784,2.091 24.83,0.865 C23.411,-0.025 22.085,0.027 20.478,0.027 C17.648,0.027 14.945,-0.228 12.894,2.056 C11.932,3.128 11.273,4.602 10.996,6.035 C5.129,6.39 0.504,10.888 0.445,17.138 C0.367,25.493 0.3,34.03 0.446,42.384 C0.692,56.465 17.566,54 26.809,54 L53.164,54 C58.855,54 66.961,55.217 71.914,51.877 C76.326,48.901 76,43.349 76,38.669 L76,24.116 L76,24.116 Z M19.033,5 L21.944,5 C21.996,5 22.07,5.2 22.179,5.26 C22.448,5.405 22.724,5.729 22.851,6 L16.519,6 C17.071,5.053 17.759,5 19.033,5 L19.033,5 Z M71.147,43.42 C70.062,50.266 59.205,48 54.116,48 L11.855,48 C3.203,48 5.615,33.396 5.631,27.5 C5.646,22.017 3.57,12 11.741,11 L47.497,11 L64.641,11 C71.624,11 71.216,16.94 71.216,22.704 C71.217,29.38 72.196,36.807 71.147,43.42 L71.147,43.42 Z" id="Shape"></path>
            <path d="M52.438,30.705 C52.454,30.421 52.418,30.17 52.364,29.934 C51.62,22.414 46.088,17.098 38.42,16.684 C30.508,16.258 24.795,23.417 24.402,30.704 C23.976,38.616 31.132,44.329 38.42,44.722 C46.048,45.132 51.617,38.494 52.36,31.488 C52.418,31.249 52.454,30.994 52.438,30.705 L52.438,30.705 Z M29.652,30.705 C29.043,19.394 46.582,19.455 47.188,30.705 C46.58,42.007 30.261,42.007 29.652,30.705 L29.652,30.705 Z" id="Shape"></path>
        </g>
    </g>
</svg>