<?xml version="1.0" encoding="UTF-8" standalone="no"?>
<svg width="46px" height="40px" viewBox="0 0 46 40" version="1.1" xmlns="http://www.w3.org/2000/svg" xmlns:xlink="http://www.w3.org/1999/xlink">
    <!-- Generator: Sketch 40.1 (33804) - http://www.bohemiancoding.com/sketch -->
    <title>Capa_1</title>
    <desc>Created with Sketch.</desc>
    <defs></defs>
    <g id="Symbols" stroke="none" stroke-width="1" fill="none" fill-rule="evenodd" opacity="0.31535681">
        <g id="picture-empty" transform="translate(-77.000000, -50.000000)" fill="#DADBDD">
            <g id="picture-134">
                <g transform="translate(77.000000, 50.000000)">
                    <g id="Capa_1">
                        <g id="Group">
                            <path d="M44.1365392,7.98697479 C42.9402878,6.78747899 41.4973625,6.18756303 39.8067577,6.18756303 L34.4482186,6.18756303 L33.2284226,2.92487395 C32.925275,2.1412605 32.3713479,1.46537815 31.5655519,0.897310924 C30.7600911,0.329495798 29.9348561,0.0453781513 29.0895118,0.0453781513 L16.8411949,0.0453781513 C15.9959344,0.0453781513 15.1705319,0.329495798 14.365071,0.897310924 C13.5596102,1.46537815 13.0055993,2.1412605 12.7025355,2.92487395 L11.4825719,6.18756303 L6.12403279,6.18756303 C4.43326047,6.18756303 2.99025137,6.78747899 1.794,7.98697479 C0.598,9.18655462 0,10.6339496 0,12.3294958 L0,33.8263866 C0,35.5220168 0.598,36.9695798 1.794,38.1688235 C2.99025137,39.3685714 4.43334426,39.9684874 6.12403279,39.9684874 L39.8061712,39.9684874 C41.496776,39.9684874 42.9396175,39.3685714 44.1359526,38.1688235 C45.3318689,36.9695798 45.9300364,35.5220168 45.9300364,33.8263866 L45.9300364,12.3294958 C45.9303716,10.6339496 45.332204,9.18655462 44.1365392,7.98697479 L44.1365392,7.98697479 Z M30.536459,30.6716807 C28.4393115,32.775042 25.9157632,33.8269748 22.9651439,33.8269748 C20.0145246,33.8269748 17.4911439,32.775042 15.3938288,30.6716807 C13.2965137,28.5686555 12.2480656,26.0371429 12.2480656,23.0785714 C12.2480656,20.1190756 13.2968488,17.5884034 15.3938288,15.484958 C17.4908925,13.3815126 20.0146084,12.33 22.9651439,12.33 C25.9156794,12.33 28.4393115,13.3817647 30.536459,15.484958 C32.6336903,17.5881513 33.682306,20.1190756 33.682306,23.0785714 C33.682306,26.0371429 32.6337741,28.5684034 30.536459,30.6716807 L30.536459,30.6716807 Z" id="Shape"></path>
                            <path d="M22.9651439,16.1683193 C21.0672459,16.1683193 19.44451,16.8441176 18.0968525,18.1958824 C16.7491949,19.547479 16.0753661,21.1747059 16.0753661,23.0785714 C16.0753661,24.9816807 16.7491949,26.6091597 18.0968525,27.9607563 C19.44451,29.3121008 21.0671621,29.9878992 22.9651439,29.9878992 C24.8627905,29.9878992 26.485694,29.3121008 27.8333515,27.9607563 C29.1810091,26.6091597 29.8549217,24.9817647 29.8549217,23.0785714 C29.8549217,21.1747899 29.1810091,19.547563 27.8333515,18.1958824 C26.4857778,16.8442017 24.8627905,16.1683193 22.9651439,16.1683193 L22.9651439,16.1683193 Z" id="Shape"></path>
                        </g>
                    </g>
                </g>
            </g>
        </g>
    </g>
</svg>