<?xml version="1.0" encoding="UTF-8" standalone="no"?>
<svg width="14px" height="24px" viewBox="0 0 14 24" version="1.1" xmlns="http://www.w3.org/2000/svg" xmlns:xlink="http://www.w3.org/1999/xlink">
    <!-- Generator: Sketch 40.3 (33839) - http://www.bohemiancoding.com/sketch -->
    <title>noun_24187_cc</title>
    <desc>Created with Sketch.</desc>
    <defs></defs>
    <g id="Page-1" stroke="none" stroke-width="1" fill="none" fill-rule="evenodd">
        <g id="noun_24187_cc" fill="#000000">
            <path d="M13.2664839,9.25244444 C12.9272295,8.09718519 12.3948099,7.0127037 11.5699561,6.14833333 C11.351462,5.91940741 11.117617,5.70577778 10.8845395,5.49240741 C10.701864,5.32518519 10.2490132,5.05425926 10.1546053,4.82922222 C10.6353436,5.97566667 11.1171053,7.16488889 10.754057,8.42177778 C10.5900585,8.99033333 9.96937135,10.351963 9.16089181,10.0048148 C8.39616228,9.67633333 8.48519737,8.05233333 8.41944444,7.39614815 C8.25774854,5.78614815 7.90672515,4.17925926 7.05935673,2.78574074 C6.59780702,2.02662963 5.9932383,1.35151852 5.23209064,0.893666667 C4.23249269,0.292444444 3.19579678,-0.111740741 2.05829678,0.324074074 C2.30877193,0.228148148 2.96834795,0.996333333 3.09141082,1.14437037 C3.49002193,1.62322222 3.82211257,2.1897037 3.9999269,2.79196296 C4.36118421,4.01566667 4.04597953,5.40918519 3.62408626,6.57559259 C2.75087719,8.98955556 1.29407895,11.1605926 0.594846491,13.643 C0.351023392,14.5081481 0.18369883,15.3974074 0.137902047,16.297037 C-0.00588450292,19.131 1.44605263,21.726963 3.74586988,23.3120741 C4.26779971,23.6716667 5.19576023,24.122 5.8566155,23.8902222 C3.92624269,22.8441111 3.28432018,21.9846667 2.98625731,20.7534444 C2.29521199,17.899 4.93121345,16.0865185 6.07127193,13.8286296 C6.3747076,13.2276667 6.59499269,12.5673333 6.5182383,11.8857407 C6.48958333,11.6316667 6.20405702,10.382037 5.82540205,10.4434815 C6.97313596,10.2570741 7.72046784,11.0312222 8.11319444,12.0412963 C8.52690058,13.1052963 8.77277047,14.1983333 8.59009503,15.33 C8.52894737,15.7085185 8.24802632,16.891 8.78888889,16.9677407 C9.53340643,17.0737778 10.1725146,16.0727778 10.0197734,15.107037 C9.94122807,14.6629259 9.8629386,13.9704444 9.8629386,13.9701852 C10.6540205,14.9577037 11.0127193,15.946 11.1288743,17.029963 C11.3366228,18.97 10.5209795,21.5198148 8.98665936,23.1031111 C9.63165205,22.4373333 10.4526681,21.9771481 11.075402,21.2662593 C11.7114401,20.5405926 12.1967836,19.7011111 12.5762061,18.8126296 C13.4256213,16.8241111 13.9217105,14.5763333 13.7835526,12.405037 C13.7180556,11.369037 13.569152,10.2827407 13.2664839,9.25244444 L13.2664839,9.25244444 Z" id="Shape"></path>
        </g>
    </g>
</svg>