<svg xmlns="http://www.w3.org/2000/svg" xmlns:xlink="http://www.w3.org/1999/xlink" version="1.1" x="0px" y="0px" viewBox="0 0 48 60" enable-background="new 0 0 48 48" xml:space="preserve"><g><path d="M41,0H7C6.4,0,6,0.4,6,1v46c0,0.6,0.4,1,1,1h24c0.1,0,0.3,0,0.4-0.1c0.1-0.1,0.2-0.1,0.3-0.2l10-10c0,0,0,0,0,0   c0.2-0.2,0.3-0.4,0.3-0.6c0,0,0,0,0-0.1V1C42,0.4,41.6,0,41,0z M32,44.6V38h6.6L32,44.6z M40,36h-9c-0.6,0-1,0.4-1,1v9H8V2h32V36z"/><path d="M23.9,36.9H11.6c-0.6,0-1,0.4-1,1c0,0.6,0.4,1,1,1h12.3c0.6,0,1-0.4,1-1C24.9,37.3,24.4,36.9,23.9,36.9z"/><path d="M29.3,7.1h7.1c0.6,0,1-0.4,1-1c0-0.6-0.4-1-1-1h-7.1c-0.6,0-1,0.4-1,1C28.3,6.7,28.7,7.1,29.3,7.1z"/><path d="M29.3,11.1h7.1c0.6,0,1-0.4,1-1c0-0.6-0.4-1-1-1h-7.1c-0.6,0-1,0.4-1,1C28.3,10.6,28.7,11.1,29.3,11.1z"/><path d="M11.6,32.4h24.8c0.6,0,1-0.4,1-1c0-0.6-0.4-1-1-1H11.6c-0.6,0-1,0.4-1,1C10.6,32,11,32.4,11.6,32.4z"/><path d="M11.6,26h24.8c0.6,0,1-0.4,1-1c0-0.6-0.4-1-1-1H11.6c-0.6,0-1,0.4-1,1C10.6,25.6,11,26,11.6,26z"/><path d="M11.6,19.6h24.8c0.6,0,1-0.4,1-1s-0.4-1-1-1H11.6c-0.6,0-1,0.4-1,1S11,19.6,11.6,19.6z"/><path d="M11.6,15h11.7c0.6,0,1-0.4,1-1V6.1c0-0.6-0.4-1-1-1H11.6c-0.6,0-1,0.4-1,1V14C10.6,14.6,11,15,11.6,15z M12.6,7.1h9.7V13   h-9.7V7.1z"/></g><text x="0" y="63" fill="#000000" font-size="5px" font-weight="bold" font-family="'Helvetica Neue', Helvetica, Arial-Unicode, Arial, Sans-serif">Created by Vectors Market</text><text x="0" y="68" fill="#000000" font-size="5px" font-weight="bold" font-family="'Helvetica Neue', Helvetica, Arial-Unicode, Arial, Sans-serif">from the Noun Project</text></svg>