<?xml version="1.0" encoding="UTF-8" standalone="no"?>
<svg width="29px" height="29px" viewBox="0 0 29 29" version="1.1" xmlns="http://www.w3.org/2000/svg" xmlns:xlink="http://www.w3.org/1999/xlink">
    <!-- Generator: Sketch 40.3 (33839) - http://www.bohemiancoding.com/sketch -->
    <title>Shape</title>
    <desc>Created with Sketch.</desc>
    <defs></defs>
    <g id="Page-1" stroke="none" stroke-width="1" fill="none" fill-rule="evenodd">
        <g id="noun_15567_cc" transform="translate(-782.000000, -74.000000)" fill="#000000">
            <g id="Group" transform="translate(220.000000, 45.000000)">
                <path d="M590.438,43.705 C590.454,43.421 590.418,43.17 590.364,42.934 C589.62,35.414 584.088,30.098 576.42,29.684 C568.508,29.258 562.795,36.417 562.402,43.704 C561.976,51.616 569.132,57.329 576.42,57.722 C584.048,58.132 589.617,51.494 590.36,44.488 C590.418,44.249 590.454,43.994 590.438,43.705 L590.438,43.705 Z M567.652,43.705 C567.043,32.394 584.582,32.455 585.188,43.705 C584.58,55.007 568.261,55.007 567.652,43.705 L567.652,43.705 Z" id="Shape"></path>
            </g>
        </g>
    </g>
</svg>