<?xml version="1.0" encoding="UTF-8" standalone="no"?>
<svg width="70px" height="70px" viewBox="0 0 70 70" version="1.1" xmlns="http://www.w3.org/2000/svg" xmlns:xlink="http://www.w3.org/1999/xlink">
    <!-- Generator: Sketch 40.1 (33804) - http://www.bohemiancoding.com/sketch -->
    <title>noun_161420_cc</title>
    <desc>Created with Sketch.</desc>
    <defs></defs>
    <g id="Page-1" stroke="none" stroke-width="1" fill="none" fill-rule="evenodd" opacity="0.0748017724">
        <g id="noun_161420_cc" fill="#000000">
            <path d="M35,0 C15.6333333,0 0,15.6333333 0,35 C0,54.3666667 15.6333333,70 35,70 C54.3666667,70 70,54.3666667 70,35 C70,15.6333333 54.3666667,0 35,0 L35,0 Z M66.8888889,35 C66.8888889,43.2444444 63.7777778,50.7111111 58.6444444,56.3888889 L13.6111111,11.3555556 C19.2888889,6.22222222 26.7555556,3.11111111 35,3.11111111 C52.5777778,3.11111111 66.8888889,17.4222222 66.8888889,35 L66.8888889,35 Z M3.11111111,35 C3.11111111,26.7555556 6.22222222,19.2888889 11.3555556,13.6111111 L56.3888889,58.6444444 C50.7111111,63.7777778 43.2444444,66.8888889 35,66.8888889 C17.4222222,66.8888889 3.11111111,52.5777778 3.11111111,35 L3.11111111,35 Z" id="Shape"></path>
        </g>
    </g>
</svg>