<?xml version="1.0" encoding="UTF-8" standalone="no"?>
<svg width="22px" height="22px" viewBox="0 0 22 22" version="1.1" xmlns="http://www.w3.org/2000/svg" xmlns:xlink="http://www.w3.org/1999/xlink">
    <!-- Generator: Sketch 40.1 (33804) - http://www.bohemiancoding.com/sketch -->
    <title>Slice 1</title>
    <desc>Created with Sketch.</desc>
    <defs></defs>
    <g id="Page-1" stroke="none" stroke-width="1" fill="none" fill-rule="evenodd">
        <g id="Group" fill="#000000">
            <path d="M0.716216216,0.785472973 L0.716216216,20.4940878 C0.716216216,20.9290541 1.06672297,21.2795608 1.50168919,21.2795608 L14.1157095,21.2795608 C14.5506757,21.2795608 14.9011824,20.9290541 14.9011824,20.4940878 L14.9011824,17.7364865 L13.71875,17.7364865 L13.71875,20.1013514 L1.89864865,20.1013514 L1.89864865,1.18243243 L13.722973,1.18243243 L13.722973,3.5472973 L14.9054054,3.5472973 L14.9054054,0.785472973 C14.9054054,0.350506757 14.5548986,3.55271368e-15 14.1199324,3.55271368e-15 L1.50168919,3.55271368e-15 C1.06672297,3.55271368e-15 0.716216216,0.350506757 0.716216216,0.785472973 L0.716216216,0.785472973 Z" id="Shape"></path>
            <polygon id="Shape" points="16.0878378 4.72972973 15.3192568 5.49831081 19.8716216 10.0506757 9.58868243 10.0506757 8.96368243 10.6081081 9.58868243 11.2331081 19.8716216 11.2331081 15.3192568 15.785473 16.0878378 16.5540541 22 10.6418919"></polygon>
        </g>
    </g>
</svg>